<svg width="60" height="51" viewBox="0 0 60 51" fill="none" xmlns="http://www.w3.org/2000/svg">
<path d="M56.4012 1.94171C50.7009 2.26665 39.3712 3.44937 32.3769 7.74981C31.8943 8.04654 31.6207 8.57416 31.6207 9.12582V47.1433C31.6207 48.3501 32.9345 49.1128 34.0423 48.5528C41.2383 44.9148 51.6454 43.9222 56.7912 43.6505C58.5481 43.5575 59.9139 42.1429 59.9139 40.4471V5.14928C59.9149 3.29892 58.3172 1.83305 56.4012 1.94171ZM27.5369 7.74981C20.5437 3.44937 9.214 2.26769 3.51376 1.94171C1.59773 1.83305 0 3.29892 0 5.14928V40.4482C0 42.145 1.36577 43.5596 3.12265 43.6516C8.27055 43.9232 18.6828 44.9168 25.8789 48.557C26.9836 49.1159 28.2932 48.3543 28.2932 47.1507V9.10702C28.2932 8.55431 28.0206 8.04758 27.5369 7.74981Z" fill="#7DC143"/>
<path d="M55.2331 48.2572L54.9451 1L47.7439 1.47429V49.68L51.7766 45.2533L55.2331 48.2572Z" fill="#D16FFF" stroke="white" stroke-linejoin="round"/>
</svg>
